<svg width="61" height="61" viewBox="0 0 61 61" fill="none" xmlns="http://www.w3.org/2000/svg">
<path d="M30.5 0.5C13.97 0.5 0.5 13.97 0.5 30.5C0.5 47.03 13.97 60.5 30.5 60.5C47.03 60.5 60.5 47.03 60.5 30.5C60.5 13.97 47.03 0.5 30.5 0.5ZM40.58 37.4C41.45 38.27 41.45 39.71 40.58 40.58C40.13 41.03 39.56 41.24 38.99 41.24C38.42 41.24 37.85 41.03 37.4 40.58L30.5 33.68L23.6 40.58C23.15 41.03 22.58 41.24 22.01 41.24C21.44 41.24 20.87 41.03 20.42 40.58C19.55 39.71 19.55 38.27 20.42 37.4L27.32 30.5L20.42 23.6C19.55 22.73 19.55 21.29 20.42 20.42C21.29 19.55 22.73 19.55 23.6 20.42L30.5 27.32L37.4 20.42C38.27 19.55 39.71 19.55 40.58 20.42C41.45 21.29 41.45 22.73 40.58 23.6L33.68 30.5L40.58 37.4Z" fill="#BC2F32"/>
</svg>
