<svg width="61" height="61" viewBox="0 0 61 61" fill="none" xmlns="http://www.w3.org/2000/svg">
<path d="M30.5 0.5C13.97 0.5 0.5 13.97 0.5 30.5C0.5 47.03 13.97 60.5 30.5 60.5C47.03 60.5 60.5 47.03 60.5 30.5C60.5 13.97 47.03 0.5 30.5 0.5ZM44.84 23.6L27.83 40.61C27.41 41.03 26.84 41.27 26.24 41.27C25.64 41.27 25.07 41.03 24.65 40.61L16.16 32.12C15.29 31.25 15.29 29.81 16.16 28.94C17.03 28.07 18.47 28.07 19.34 28.94L26.24 35.84L41.66 20.42C42.53 19.55 43.97 19.55 44.84 20.42C45.71 21.29 45.71 22.7 44.84 23.6Z" fill="#107C10"/>
</svg>
